<svg width="16" height="16" viewBox="0 0 24 24" fill="none" xmlns="http://www.w3.org/2000/svg">
<path d="M2 24C1.46667 24 1 23.8 0.6 23.4C0.2 23 0 22.5333 0 22V2C0 1.46667 0.2 1 0.6 0.6C1 0.2 1.46667 0 2 0H22C22.5333 0 23 0.2 23.4 0.6C23.8 1 24 1.46667 24 2V22C24 22.5333 23.8 23 23.4 23.4C23 23.8 22.5333 24 22 24H2ZM2 22H7.33333V16.6667H2V22ZM9.33333 22H14.6667V16.6667H9.33333V22ZM16.6667 22H22V16.6667H16.6667V22ZM2 14.6667H7.33333V9.33333H2V14.6667ZM9.33333 14.6667H14.6667V9.33333H9.33333V14.6667ZM16.6667 14.6667H22V9.33333H16.6667V14.6667ZM2 7.33333H7.33333V2H2V7.33333ZM9.33333 7.33333H14.6667V2H9.33333V7.33333ZM16.6667 7.33333H22V2H16.6667V7.33333Z" fill="#B0BEC5"/>
</svg>
