<svg width="16" height="16" viewBox="0 0 24 24" fill="none" xmlns="http://www.w3.org/2000/svg">
<path d="M10.8 19.2H12H13.2V18V16.8H12H10.8542L10.8 18V19.2ZM12 0C10.4241 0 8.86371 0.310389 7.4078 0.913446C5.95189 1.5165 4.62902 2.40042 3.51472 3.51472C1.26428 5.76516 0 8.8174 0 12C0 15.1826 1.26428 18.2348 3.51472 20.4853C4.62902 21.5996 5.95189 22.4835 7.4078 23.0866C8.86371 23.6896 10.4241 24 12 24C15.1826 24 18.2348 22.7357 20.4853 20.4853C22.7357 18.2348 24 15.1826 24 12C24 10.4241 23.6896 8.86371 23.0866 7.4078C22.4835 5.95189 21.5996 4.62902 20.4853 3.51472C19.371 2.40042 18.0481 1.5165 16.5922 0.913446C15.1363 0.310389 13.5759 0 12 0ZM12 21.6C6.708 21.6 2.4 17.292 2.4 12C2.4 6.708 6.708 2.4 12 2.4C17.292 2.4 21.6 6.708 21.6 12C21.6 17.292 17.292 21.6 12 21.6ZM12 4.8C10.727 4.8 9.50606 5.30571 8.60589 6.20589C7.70571 7.10606 7.2 8.32696 7.2 9.6H8H8.60589H9.75C9.75 8.96348 9.85286 8.35303 10.3029 7.90294C10.753 7.45286 11.3635 7.2 12 7.2C12.6365 7.2 13.247 7.45286 13.6971 7.90294C14.1471 8.35303 14.4 8.96348 14.4 9.6C14.4 12 10.8 11.7 10.8 15.6H13.2C13.2 12.9 16.8 12.6 16.8 9.6C16.8 8.32696 16.2943 7.10606 15.3941 6.20589C14.4939 5.30571 13.273 4.8 12 4.8Z" fill="#B0BEC5"/>
</svg>
