<svg width="16" height="16" viewBox="0 0 24 24" fill="none" xmlns="http://www.w3.org/2000/svg">
<path d="M7.44925 24H2.0034C1.46765 24 0.999809 23.8008 0.599885 23.4024C0.199962 23.004 0 22.5379 0 22.0042V16.5789C0.847115 16.4829 1.57256 16.145 2.17633 15.5651C2.7801 14.9853 3.08199 14.2783 3.08199 13.4443C3.08199 12.6103 2.7801 11.9031 2.17633 11.3227C1.57256 10.7422 0.847115 10.4016 0 10.3008V4.88273C0 4.35039 0.199962 3.88346 0.599885 3.48195C0.999809 3.08041 1.46765 2.87964 2.0034 2.87964H7.21821C7.47961 2.0537 7.91208 1.36726 8.51563 0.820347C9.1192 0.273449 9.83311 0 10.6573 0C11.4816 0 12.1955 0.273449 12.7991 0.820347C13.4026 1.36726 13.8351 2.0537 14.0965 2.87964H19.1898C19.7242 2.87964 20.1929 3.08041 20.5959 3.48195C20.999 3.88346 21.2005 4.35039 21.2005 4.88273V9.95682C22.0296 10.2172 22.7035 10.6682 23.2221 11.3098C23.7407 11.9515 24 12.6828 24 13.504C24 14.3251 23.7407 15.0212 23.2221 15.5922C22.7035 16.1632 22.0296 16.5789 21.2005 16.8393V22.0042C21.2005 22.5379 20.999 23.004 20.5959 23.4024C20.1929 23.8008 19.7242 24 19.1898 24H13.7512C13.6452 23.0561 13.2932 22.2952 12.6952 21.7171C12.0972 21.1391 11.3971 20.8501 10.5949 20.8501C9.7927 20.8501 9.09318 21.1391 8.49635 21.7171C7.8995 22.2952 7.55047 23.0561 7.44925 24ZM2.06875 21.9391H5.96533C6.4569 20.7619 7.14733 19.9415 8.03663 19.4776C8.92593 19.0138 9.77933 18.7819 10.5968 18.7819C11.3998 18.7819 12.2483 19.0138 13.1423 19.4776C14.0363 19.9415 14.735 20.7619 15.2384 21.9391H19.1245V14.8985H20.5272C20.9321 14.8985 21.2661 14.7673 21.5292 14.5048C21.7924 14.2424 21.924 13.9092 21.924 13.5055C21.924 13.1018 21.7924 12.7686 21.5292 12.5062C21.2661 12.2437 20.9321 12.1125 20.5272 12.1125H19.1245V4.94783H12.0572V3.45968C12.0572 3.05635 11.9255 2.7236 11.662 2.46143C11.3986 2.19927 11.0642 2.06819 10.6589 2.06819C10.2536 2.06819 9.91925 2.19927 9.65577 2.46143C9.3923 2.7236 9.26057 3.05635 9.26057 3.45968V4.94783H2.06875V8.80076C2.99989 9.20346 3.74756 9.82337 4.31176 10.6605C4.87594 11.4976 5.15802 12.4274 5.15802 13.4499C5.15802 14.4548 4.87638 15.3795 4.3131 16.2241C3.74981 17.0687 3.00169 17.6894 2.06875 18.0861V21.9391Z" fill="#B0BEC5"/>
</svg>
