<svg width="16" height="16" viewBox="0 0 24 24" fill="none" xmlns="http://www.w3.org/2000/svg">
<path d="M5.66667 18.3333H10.3333V13.6667H5.66667V18.3333ZM13.6667 18.3333H18.3333V13.6667H13.6667V18.3333ZM5.66667 10.3333H10.3333V5.66667H5.66667V10.3333ZM13.6667 10.3333H18.3333V5.66667H13.6667V10.3333ZM2 24C1.46667 24 1 23.8 0.6 23.4C0.2 23 0 22.5333 0 22V2C0 1.46667 0.2 1 0.6 0.6C1 0.2 1.46667 0 2 0H22C22.5333 0 23 0.2 23.4 0.6C23.8 1 24 1.46667 24 2V22C24 22.5333 23.8 23 23.4 23.4C23 23.8 22.5333 24 22 24H2ZM2 22H22V2H2V22Z" fill="#B0BEC5"/>
</svg>
