<svg width="16" height="16" viewBox="0 0 24 24" fill="none" xmlns="http://www.w3.org/2000/svg">
<path d="M12 7.2C13.3085 7.2 14.5633 7.70571 15.4885 8.60589C16.4138 9.50606 16.9335 10.727 16.9335 12C16.9335 13.273 16.4138 14.4939 15.4885 15.3941C14.5633 16.2943 13.3085 16.8 12 16.8C10.6915 16.8 9.43668 16.2943 8.51146 15.3941C7.58625 14.4939 7.06646 13.273 7.06646 12C7.06646 10.727 7.58625 9.50606 8.51146 8.60589C9.43668 7.70571 10.6915 7.2 12 7.2ZM12 9.6C11.3458 9.6 10.7183 9.85286 10.2557 10.3029C9.79312 10.753 9.53323 11.3635 9.53323 12C9.53323 12.6365 9.79312 13.247 10.2557 13.6971C10.7183 14.1471 11.3458 14.4 12 14.4C12.6542 14.4 13.2817 14.1471 13.7443 13.6971C14.2069 13.247 14.4668 12.6365 14.4668 12C14.4668 11.3635 14.2069 10.753 13.7443 10.3029C13.2817 9.85286 12.6542 9.6 12 9.6ZM9.53323 24C9.22489 24 8.96587 23.784 8.91654 23.496L8.46019 20.316C7.68316 20.016 7.01713 19.608 6.37577 19.128L3.30464 20.34C3.0333 20.436 2.70029 20.34 2.55228 20.076L0.0855124 15.924C-0.0748275 15.66 -0.000824258 15.336 0.233519 15.156L2.83596 13.164L2.74962 12L2.83596 10.8L0.233519 8.844C-0.000824258 8.664 -0.0748275 8.34 0.0855124 8.076L2.55228 3.924C2.70029 3.66 3.0333 3.552 3.30464 3.66L6.37577 4.86C7.01713 4.392 7.68316 3.984 8.46019 3.684L8.91654 0.504C8.96587 0.216 9.22489 0 9.53323 0H14.4668C14.7751 0 15.0341 0.216 15.0835 0.504L15.5398 3.684C16.3168 3.984 16.9829 4.392 17.6242 4.86L20.6954 3.66C20.9667 3.552 21.2997 3.66 21.4477 3.924L23.9145 8.076C24.0748 8.34 24.0008 8.664 23.7665 8.844L21.164 10.8L21.2504 12L21.164 13.2L23.7665 15.156C24.0008 15.336 24.0748 15.66 23.9145 15.924L21.4477 20.076C21.2997 20.34 20.9667 20.448 20.6954 20.34L17.6242 19.14C16.9829 19.608 16.3168 20.016 15.5398 20.316L15.0835 23.496C15.0341 23.784 14.7751 24 14.4668 24H9.53323ZM11.075 2.4L10.6186 5.532C9.13855 5.832 7.83116 6.6 6.88146 7.668L3.909 6.42L2.98396 7.98L5.5864 9.84C5.09305 11.244 5.09305 12.768 5.5864 14.16L2.97163 16.032L3.89667 17.592L6.89379 16.344C7.8435 17.4 9.13855 18.168 10.6063 18.456L11.0626 21.6H12.9374L13.3937 18.468C14.8615 18.168 16.1565 17.4 17.1062 16.344L20.1033 17.592L21.0284 16.032L18.4136 14.172C18.9069 12.768 18.9069 11.244 18.4136 9.84L21.016 7.98L20.091 6.42L17.1185 7.668C16.1688 6.6 14.8615 5.832 13.3814 5.544L12.925 2.4H11.075Z" fill="#B0BEC5"/>
</svg>
