<svg width="15" height="15" viewBox="0 0 17 17" fill="none" xmlns="http://www.w3.org/2000/svg">
<path d="M7.65081 12.4509L13.2908 6.81087L12.1708 5.69087L7.65081 10.2109L5.37081 7.93087L4.25081 9.05087L7.65081 12.4509ZM8.77081 16.7709C7.66415 16.7709 6.62415 16.5607 5.65081 16.1405C4.67748 15.7207 3.83081 15.1509 3.11081 14.4309C2.39081 13.7109 1.82095 12.8642 1.40121 11.8909C0.980946 10.9175 0.770813 9.87754 0.770813 8.77087C0.770813 7.66421 0.980946 6.62421 1.40121 5.65087C1.82095 4.67754 2.39081 3.83087 3.11081 3.11087C3.83081 2.39087 4.67748 1.82074 5.65081 1.40047C6.62415 0.980741 7.66415 0.770874 8.77081 0.770874C9.87748 0.770874 10.9175 0.980741 11.8908 1.40047C12.8641 1.82074 13.7108 2.39087 14.4308 3.11087C15.1508 3.83087 15.7207 4.67754 16.1404 5.65087C16.5607 6.62421 16.7708 7.66421 16.7708 8.77087C16.7708 9.87754 16.5607 10.9175 16.1404 11.8909C15.7207 12.8642 15.1508 13.7109 14.4308 14.4309C13.7108 15.1509 12.8641 15.7207 11.8908 16.1405C10.9175 16.5607 9.87748 16.7709 8.77081 16.7709ZM8.77081 15.1709C10.5575 15.1709 12.0708 14.5509 13.3108 13.3109C14.5508 12.0709 15.1708 10.5575 15.1708 8.77087C15.1708 6.98421 14.5508 5.47087 13.3108 4.23087C12.0708 2.99087 10.5575 2.37087 8.77081 2.37087C6.98415 2.37087 5.47081 2.99087 4.23081 4.23087C2.99081 5.47087 2.37081 6.98421 2.37081 8.77087C2.37081 10.5575 2.99081 12.0709 4.23081 13.3109C5.47081 14.5509 6.98415 15.1709 8.77081 15.1709Z" fill="#B0BEC5"/>
</svg>
