<svg width="11" height="11" viewBox="0 0 16 16" fill="none" xmlns="http://www.w3.org/2000/svg">
<path d="M1.77778 16C1.28889 16 0.870222 15.8261 0.521778 15.4782C0.173926 15.1298 0 14.7111 0 14.2222V1.77778C0 1.28889 0.173926 0.870222 0.521778 0.521778C0.870222 0.173926 1.28889 0 1.77778 0H14.2222C14.7111 0 15.1298 0.173926 15.4782 0.521778C15.8261 0.870222 16 1.28889 16 1.77778V14.2222C16 14.7111 15.8261 15.1298 15.4782 15.4782C15.1298 15.8261 14.7111 16 14.2222 16H1.77778ZM1.77778 14.2222H14.2222V1.77778H1.77778V14.2222Z" fill="#F0535E"/>
<path d="M7.5 9.5V5H8.7V9.5H7.5ZM7.5 12V11H8.7V12H7.5Z" fill="#F0535E"/>
</svg>
