<svg width="20" height="20" viewBox="0 0 20 20" fill="none" xmlns="http://www.w3.org/2000/svg">
<path d="M17.7778 0H2.22222C0.988889 0 0 0.988889 0 2.22222V17.7778C0 18.3671 0.234126 18.9324 0.650874 19.3491C1.06762 19.7659 1.63285 20 2.22222 20H17.7778C18.3671 20 18.9324 19.7659 19.3491 19.3491C19.7659 18.9324 20 18.3671 20 17.7778V2.22222C20 0.988889 19 0 17.7778 0Z" fill="#41497F"/>
<path d="M9.73438 10.0234V10.293C9.73438 10.7253 9.67578 11.1133 9.55859 11.457C9.44141 11.8008 9.27604 12.0938 9.0625 12.3359C8.84896 12.5755 8.59375 12.7591 8.29688 12.8867C8.0026 13.0143 7.67578 13.0781 7.31641 13.0781C6.95964 13.0781 6.63281 13.0143 6.33594 12.8867C6.04167 12.7591 5.78646 12.5755 5.57031 12.3359C5.35417 12.0938 5.1862 11.8008 5.06641 11.457C4.94922 11.1133 4.89062 10.7253 4.89062 10.293V10.0234C4.89062 9.58854 4.94922 9.20052 5.06641 8.85938C5.18359 8.51562 5.34896 8.22266 5.5625 7.98047C5.77865 7.73828 6.03385 7.55339 6.32812 7.42578C6.625 7.29818 6.95182 7.23438 7.30859 7.23438C7.66797 7.23438 7.99479 7.29818 8.28906 7.42578C8.58594 7.55339 8.84115 7.73828 9.05469 7.98047C9.27083 8.22266 9.4375 8.51562 9.55469 8.85938C9.67448 9.20052 9.73438 9.58854 9.73438 10.0234ZM8.55078 10.293V10.0156C8.55078 9.71354 8.52344 9.44792 8.46875 9.21875C8.41406 8.98958 8.33333 8.79688 8.22656 8.64062C8.11979 8.48438 7.98958 8.36719 7.83594 8.28906C7.68229 8.20833 7.50651 8.16797 7.30859 8.16797C7.11068 8.16797 6.9349 8.20833 6.78125 8.28906C6.63021 8.36719 6.5013 8.48438 6.39453 8.64062C6.29036 8.79688 6.21094 8.98958 6.15625 9.21875C6.10156 9.44792 6.07422 9.71354 6.07422 10.0156V10.293C6.07422 10.5924 6.10156 10.8581 6.15625 11.0898C6.21094 11.319 6.29167 11.513 6.39844 11.6719C6.50521 11.8281 6.63542 11.9466 6.78906 12.0273C6.94271 12.1081 7.11849 12.1484 7.31641 12.1484C7.51432 12.1484 7.6901 12.1081 7.84375 12.0273C7.9974 11.9466 8.1263 11.8281 8.23047 11.6719C8.33464 11.513 8.41406 11.319 8.46875 11.0898C8.52344 10.8581 8.55078 10.5924 8.55078 10.293ZM10.8281 7.3125H12.9492C13.3841 7.3125 13.7578 7.3776 14.0703 7.50781C14.3854 7.63802 14.6276 7.83073 14.7969 8.08594C14.9661 8.34115 15.0508 8.65495 15.0508 9.02734C15.0508 9.33203 14.9987 9.59375 14.8945 9.8125C14.793 10.0286 14.6484 10.2096 14.4609 10.3555C14.276 10.4987 14.0586 10.6133 13.8086 10.6992L13.4375 10.8945H11.5938L11.5859 9.98047H12.957C13.1628 9.98047 13.3333 9.94401 13.4688 9.87109C13.6042 9.79818 13.7057 9.69661 13.7734 9.56641C13.8438 9.4362 13.8789 9.28516 13.8789 9.11328C13.8789 8.93099 13.8451 8.77344 13.7773 8.64062C13.7096 8.50781 13.6068 8.40625 13.4688 8.33594C13.3307 8.26562 13.1576 8.23047 12.9492 8.23047H12V13H10.8281V7.3125ZM14.0078 13L12.7109 10.4648L13.9492 10.457L15.2617 12.9453V13H14.0078Z" fill="#F7F9FA"/>
</svg>
