<svg width="85" height="94" viewBox="0 0 85 94" fill="none" xmlns="http://www.w3.org/2000/svg">
<path d="M44.9757 91.5287H9.16936C4.08037 91.5287 0 87.4557 0 82.3758V9.15287C0 4.11879 4.08037 0 9.16936 0H45.8468L73.3549 27.4586V50.7527C71.842 50.5239 70.329 50.3408 68.7702 50.3408C67.2114 50.3408 65.6985 50.5239 64.1855 50.7527V32.0351H41.2621V9.15287H9.16936V82.3758H41.6748C42.2249 85.6709 43.3711 88.7371 44.9757 91.5287ZM85 87.5015L75.2346 77.7994L85 68.0974L78.4898 61.6446L68.7702 71.3466L59.0507 61.6446L52.5863 68.0974L62.3058 77.7994L52.5863 87.5015L59.0507 94L68.7702 84.2522L78.4898 94L85 87.5015Z" fill="#78909C" fill-opacity="0.38"/>
</svg>
