<svg width="146" height="132" viewBox="0 0 146 132" fill="none" xmlns="http://www.w3.org/2000/svg">
<path d="M78.1889 106.796C78.1889 109.217 78.4732 111.566 78.8286 113.916H14.2162C6.39727 113.916 0 107.579 0 99.6764V14.2395C0 6.33657 6.32619 0 14.2162 0H56.8647L71.0808 14.2395H127.945C135.764 14.2395 142.162 20.5761 142.162 28.479V69.8447C137.826 67.3528 133.063 65.644 127.945 64.7184V28.479H14.2162V99.6764H78.8286C78.4732 102.026 78.1889 104.375 78.1889 106.796ZM146 91.7023L135.907 81.6634L120.837 96.7573L105.768 81.6634L95.7459 91.7023L110.815 106.796L95.7459 121.89L105.768 132L120.837 116.835L135.907 132L146 121.89L130.86 106.796L146 91.7023Z" fill="#78909C" fill-opacity="0.38"/>
</svg>
